<svg
  xmlns="http://www.w3.org/2000/svg"
  width="24"
  height="24"
  viewBox="0 0 24 24"
  fill="none"
>
  <defs>
    <mask id="shield-x-filled-mask" maskUnits="userSpaceOnUse" x="0" y="0" width="24" height="24">
      <rect width="24" height="24" fill="white" />
      <path d="m14.5 9.5-5 5" fill="none" stroke="black" stroke-width="2" stroke-linecap="round" stroke-linejoin="round" />
      <path d="m9.5 9.5 5 5" fill="none" stroke="black" stroke-width="2" stroke-linecap="round" stroke-linejoin="round" />
    </mask>
  </defs>
  <path d="M20 13c0 5-3.5 7.5-7.66 8.95a1 1 0 0 1-.67-.01C7.5 20.5 4 18 4 13V6a1 1 0 0 1 1-1c2 0 4.5-1.2 6.24-2.72a1.17 1.17 0 0 1 1.52 0C14.51 3.81 17 5 19 5a1 1 0 0 1 1 1z" fill="currentColor" stroke="currentColor" stroke-width="2" stroke-linecap="round" stroke-linejoin="round" mask="url(#shield-x-filled-mask)" />
</svg>
